<mxfile host="Electron" agent="Mozilla/5.0 (Macintosh; Intel Mac OS X 10_15_7) AppleWebKit/537.36 (KHTML, like Gecko) draw.io/26.0.16 Chrome/132.0.6834.196 Electron/34.2.0 Safari/537.36" version="26.0.16">
  <diagram id="2mgyJ-_zdfh3gZ3U018M" name="Page-1">
    <mxGraphModel dx="2069" dy="878" grid="1" gridSize="10" guides="1" tooltips="1" connect="1" arrows="1" fold="1" page="1" pageScale="1" pageWidth="827" pageHeight="1169" math="0" shadow="0">
      <root>
        <mxCell id="0" />
        <mxCell id="1" parent="0" />
        <mxCell id="PIvEL9YP9_9EcO1mkzoZ-20" value="Infrastructure" style="whiteSpace=wrap;html=1;align=left;verticalAlign=top;fillColor=#006666;fontColor=#FFFFFF;fontSize=16;" parent="1" vertex="1">
          <mxGeometry x="30" y="960" width="1060" height="190" as="geometry" />
        </mxCell>
        <mxCell id="PIvEL9YP9_9EcO1mkzoZ-21" value="OpenShift" style="whiteSpace=wrap;html=1;align=left;verticalAlign=top;fillColor=#990000;fontColor=#FFFFFF;fontSize=16;" parent="1" vertex="1">
          <mxGeometry x="30" y="850" width="1060" height="100" as="geometry" />
        </mxCell>
        <mxCell id="PIvEL9YP9_9EcO1mkzoZ-23" value="Storage" style="whiteSpace=wrap;html=1;align=left;verticalAlign=top;fillColor=#99004D;fontColor=#FFFFFF;fontSize=16;" parent="1" vertex="1">
          <mxGeometry x="30" y="740" width="1060" height="100" as="geometry" />
        </mxCell>
        <mxCell id="PIvEL9YP9_9EcO1mkzoZ-31" value="Cloud Pak" style="whiteSpace=wrap;html=1;align=left;verticalAlign=top;fillColor=#000099;fontColor=#FFFFFF;fontSize=16;" parent="1" vertex="1">
          <mxGeometry x="30" y="630" width="1060" height="100" as="geometry" />
        </mxCell>
        <mxCell id="PIvEL9YP9_9EcO1mkzoZ-33" value="Configuration" style="whiteSpace=wrap;html=1;align=left;verticalAlign=top;fillColor=#CCCC00;fontColor=#FFFFFF;fontSize=16;" parent="1" vertex="1">
          <mxGeometry x="30" y="520" width="1060" height="100" as="geometry" />
        </mxCell>
        <mxCell id="PIvEL9YP9_9EcO1mkzoZ-34" value="Content" style="whiteSpace=wrap;html=1;align=left;verticalAlign=top;fillColor=#994C00;fontColor=#FFFFFF;fontSize=16;" parent="1" vertex="1">
          <mxGeometry x="30" y="410" width="1060" height="100" as="geometry" />
        </mxCell>
        <mxCell id="x2PrL_irTpATyocbjBxF-1" value="Available" style="rounded=1;whiteSpace=wrap;html=1;fontSize=16;fontColor=#FFFFFF;fillColor=#009900;align=center;verticalAlign=middle;" parent="1" vertex="1">
          <mxGeometry x="-180" y="410" width="120" height="60" as="geometry" />
        </mxCell>
        <mxCell id="x2PrL_irTpATyocbjBxF-2" value="Being worked on" style="rounded=1;whiteSpace=wrap;html=1;fontSize=16;fontColor=#FFFFFF;fillColor=#FF8000;align=center;verticalAlign=middle;" parent="1" vertex="1">
          <mxGeometry x="-180" y="480" width="120" height="60" as="geometry" />
        </mxCell>
        <mxCell id="x2PrL_irTpATyocbjBxF-3" value="Not planned, looking for volunteers" style="rounded=1;whiteSpace=wrap;html=1;fontSize=16;fontColor=#FFFFFF;fillColor=#FF0000;align=center;verticalAlign=middle;" parent="1" vertex="1">
          <mxGeometry x="-180" y="550" width="120" height="60" as="geometry" />
        </mxCell>
        <mxCell id="G57gemSaGJWGYIfYZtMg-1" value="CP4D Assets" style="rounded=1;whiteSpace=wrap;html=1;fontSize=16;fontColor=#FFFFFF;fillColor=#009900;align=center;verticalAlign=middle;" parent="1" vertex="1">
          <mxGeometry x="150" y="420" width="120" height="80" as="geometry" />
        </mxCell>
        <mxCell id="AeC-ubgtzM1ToBXU7dL--1" value="Cloud Pak for Data &amp;amp; Software Hub" style="rounded=1;whiteSpace=wrap;html=1;fontSize=16;fontColor=#FFFFFF;fillColor=#009900;align=center;verticalAlign=middle;" parent="1" vertex="1">
          <mxGeometry x="328" y="640" width="120" height="80" as="geometry" />
        </mxCell>
        <mxCell id="Jga9hrDQZVo5-mFMCXsy-7" value="Cloud Pak for Data for Power" style="rounded=1;whiteSpace=wrap;html=1;fontSize=16;fontColor=#FFFFFF;fillColor=#009900;align=center;verticalAlign=middle;" parent="1" vertex="1">
          <mxGeometry x="940" y="640" width="120" height="80" as="geometry" />
        </mxCell>
        <mxCell id="PIvEL9YP9_9EcO1mkzoZ-9" value="Infrastructure" parent="0" />
        <mxCell id="PIvEL9YP9_9EcO1mkzoZ-35" value="Private Image&lt;br&gt;Registry" style="aspect=fixed;perimeter=ellipsePerimeter;html=1;align=center;shadow=0;dashed=0;fontColor=#4277BB;labelBackgroundColor=#ffffff;fontSize=12;spacingTop=3;image;image=img/lib/ibm/miscellaneous/ibm_containers.svg;fillColor=#994C00;" parent="PIvEL9YP9_9EcO1mkzoZ-9" vertex="1">
          <mxGeometry x="-190" y="860" width="110" height="110" as="geometry" />
        </mxCell>
        <mxCell id="PIvEL9YP9_9EcO1mkzoZ-52" value="Entitled Registry" style="aspect=fixed;perimeter=ellipsePerimeter;html=1;align=center;shadow=0;dashed=0;fontColor=#4277BB;labelBackgroundColor=#ffffff;fontSize=12;spacingTop=3;image;image=img/lib/ibm/miscellaneous/ibm_containers.svg;fillColor=#994C00;" parent="PIvEL9YP9_9EcO1mkzoZ-9" vertex="1">
          <mxGeometry x="-190" y="680" width="110" height="110" as="geometry" />
        </mxCell>
        <mxCell id="PIvEL9YP9_9EcO1mkzoZ-74" value="IBM Cloud VPC" style="rounded=1;whiteSpace=wrap;html=1;fontSize=16;fontColor=#FFFFFF;fillColor=#009900;align=center;verticalAlign=middle;" parent="PIvEL9YP9_9EcO1mkzoZ-9" vertex="1">
          <mxGeometry x="150" y="1060" width="120" height="80" as="geometry" />
        </mxCell>
        <mxCell id="PIvEL9YP9_9EcO1mkzoZ-76" value="vSphere" style="rounded=1;whiteSpace=wrap;html=1;fontSize=16;fontColor=#FFFFFF;fillColor=#009900;align=center;verticalAlign=middle;" parent="PIvEL9YP9_9EcO1mkzoZ-9" vertex="1">
          <mxGeometry x="280" y="1060" width="120" height="80" as="geometry" />
        </mxCell>
        <mxCell id="o6HUCbBxJBhQgPIIes5_-6" value="IBM Fusion HCI&lt;div&gt;IBM Fusion SDS&lt;/div&gt;" style="rounded=1;whiteSpace=wrap;html=1;fontSize=16;fontColor=#FFFFFF;fillColor=#009900;align=center;verticalAlign=middle;" parent="PIvEL9YP9_9EcO1mkzoZ-9" vertex="1">
          <mxGeometry x="543" y="1060" width="120" height="80" as="geometry" />
        </mxCell>
        <mxCell id="o6HUCbBxJBhQgPIIes5_-7" value="Azure" style="rounded=1;whiteSpace=wrap;html=1;fontSize=16;fontColor=#FFFFFF;fillColor=#009900;align=center;verticalAlign=middle;" parent="PIvEL9YP9_9EcO1mkzoZ-9" vertex="1">
          <mxGeometry x="670" y="1060" width="120" height="80" as="geometry" />
        </mxCell>
        <mxCell id="o6HUCbBxJBhQgPIIes5_-8" value="AWS" style="rounded=1;whiteSpace=wrap;html=1;fontSize=16;fontColor=#FFFFFF;fillColor=#009900;align=center;verticalAlign=middle;" parent="PIvEL9YP9_9EcO1mkzoZ-9" vertex="1">
          <mxGeometry x="800" y="1060" width="120" height="80" as="geometry" />
        </mxCell>
        <mxCell id="o6HUCbBxJBhQgPIIes5_-9" value="IBM Power" style="rounded=1;whiteSpace=wrap;html=1;fontSize=16;fontColor=#FFFFFF;fillColor=#009900;align=center;verticalAlign=middle;" parent="PIvEL9YP9_9EcO1mkzoZ-9" vertex="1">
          <mxGeometry x="940" y="1060" width="120" height="80" as="geometry" />
        </mxCell>
        <mxCell id="o6HUCbBxJBhQgPIIes5_-10" value="Any x86 infra&lt;div&gt;&lt;br&gt;ROKS Classic&lt;br&gt;Satellite&lt;/div&gt;" style="rounded=1;whiteSpace=wrap;html=1;fontSize=16;fontColor=#FFFFFF;fillColor=#009900;align=center;verticalAlign=middle;" parent="PIvEL9YP9_9EcO1mkzoZ-9" vertex="1">
          <mxGeometry x="414" y="1060" width="120" height="80" as="geometry" />
        </mxCell>
        <mxCell id="PIvEL9YP9_9EcO1mkzoZ-18" value="OpenShift" parent="0" />
        <mxCell id="PIvEL9YP9_9EcO1mkzoZ-25" value="vSphere IPI" style="rounded=1;whiteSpace=wrap;html=1;fontSize=16;fontColor=#FFFFFF;fillColor=#009900;align=center;verticalAlign=middle;" parent="PIvEL9YP9_9EcO1mkzoZ-18" vertex="1">
          <mxGeometry x="280" y="870" width="120" height="170" as="geometry" />
        </mxCell>
        <mxCell id="PIvEL9YP9_9EcO1mkzoZ-26" value="Azure&lt;br&gt;&lt;br&gt;ARO&lt;div&gt;&lt;br&gt;Self-managed&lt;div&gt;&lt;br&gt;&lt;div&gt;Self-managed private&lt;/div&gt;&lt;/div&gt;&lt;/div&gt;" style="rounded=1;whiteSpace=wrap;html=1;fontSize=16;fontColor=#FFFFFF;fillColor=#009900;align=center;verticalAlign=middle;" parent="PIvEL9YP9_9EcO1mkzoZ-18" vertex="1">
          <mxGeometry x="670" y="870" width="120" height="170" as="geometry" />
        </mxCell>
        <mxCell id="PIvEL9YP9_9EcO1mkzoZ-27" value="AWS&lt;br&gt;&lt;br&gt;ROSA&lt;div&gt;&lt;br&gt;Self-managed&lt;/div&gt;" style="rounded=1;whiteSpace=wrap;html=1;fontSize=16;fontColor=#FFFFFF;fillColor=#009900;align=center;verticalAlign=middle;" parent="PIvEL9YP9_9EcO1mkzoZ-18" vertex="1">
          <mxGeometry x="800" y="870" width="120" height="170" as="geometry" />
        </mxCell>
        <mxCell id="PIvEL9YP9_9EcO1mkzoZ-28" value="Existing OpenShift with supported storage" style="rounded=1;whiteSpace=wrap;html=1;fontSize=16;fontColor=#FFFFFF;fillColor=#009900;align=center;verticalAlign=middle;" parent="PIvEL9YP9_9EcO1mkzoZ-18" vertex="1">
          <mxGeometry x="410" y="870" width="120" height="170" as="geometry" />
        </mxCell>
        <mxCell id="PIvEL9YP9_9EcO1mkzoZ-29" value="ROKS on VPC" style="rounded=1;whiteSpace=wrap;html=1;fontSize=16;fontColor=#FFFFFF;fillColor=#009900;align=center;verticalAlign=middle;" parent="PIvEL9YP9_9EcO1mkzoZ-18" vertex="1">
          <mxGeometry x="150" y="870" width="120" height="170" as="geometry" />
        </mxCell>
        <mxCell id="o6HUCbBxJBhQgPIIes5_-11" value="Existing OpenShift with supported storage" style="rounded=1;whiteSpace=wrap;html=1;fontSize=16;fontColor=#FFFFFF;fillColor=#009900;align=center;verticalAlign=middle;" parent="PIvEL9YP9_9EcO1mkzoZ-18" vertex="1">
          <mxGeometry x="940" y="870" width="120" height="170" as="geometry" />
        </mxCell>
        <mxCell id="o6HUCbBxJBhQgPIIes5_-12" value="Existing OpenShift with supported storage" style="rounded=1;whiteSpace=wrap;html=1;fontSize=16;fontColor=#FFFFFF;fillColor=#009900;align=center;verticalAlign=middle;" parent="PIvEL9YP9_9EcO1mkzoZ-18" vertex="1">
          <mxGeometry x="540" y="870" width="120" height="170" as="geometry" />
        </mxCell>
        <mxCell id="PIvEL9YP9_9EcO1mkzoZ-54" value="Storage" parent="0" />
        <mxCell id="PIvEL9YP9_9EcO1mkzoZ-55" value="NFS" style="rounded=1;whiteSpace=wrap;html=1;fontSize=16;fontColor=#FFFFFF;fillColor=#009900;align=center;verticalAlign=middle;" parent="PIvEL9YP9_9EcO1mkzoZ-54" vertex="1">
          <mxGeometry x="150" y="750" width="120" height="80" as="geometry" />
        </mxCell>
        <mxCell id="PIvEL9YP9_9EcO1mkzoZ-56" value="OpenShift Data Foundation" style="rounded=1;whiteSpace=wrap;html=1;fontSize=16;fontColor=#FFFFFF;fillColor=#009900;align=center;verticalAlign=middle;" parent="PIvEL9YP9_9EcO1mkzoZ-54" vertex="1">
          <mxGeometry x="280" y="750" width="120" height="80" as="geometry" />
        </mxCell>
        <mxCell id="o6HUCbBxJBhQgPIIes5_-1" value="AWS Elastic Storage" style="rounded=1;whiteSpace=wrap;html=1;fontSize=16;fontColor=#FFFFFF;fillColor=#009900;align=center;verticalAlign=middle;" parent="PIvEL9YP9_9EcO1mkzoZ-54" vertex="1">
          <mxGeometry x="800" y="750" width="120" height="80" as="geometry" />
        </mxCell>
        <mxCell id="o6HUCbBxJBhQgPIIes5_-2" value="Portworx" style="rounded=1;whiteSpace=wrap;html=1;fontSize=16;fontColor=#FFFFFF;fillColor=#009900;align=center;verticalAlign=middle;" parent="PIvEL9YP9_9EcO1mkzoZ-54" vertex="1">
          <mxGeometry x="940" y="750" width="120" height="80" as="geometry" />
        </mxCell>
        <mxCell id="o6HUCbBxJBhQgPIIes5_-4" value="IBM Storage Scale" style="rounded=1;whiteSpace=wrap;html=1;fontSize=16;fontColor=#FFFFFF;fillColor=#009900;align=center;verticalAlign=middle;" parent="PIvEL9YP9_9EcO1mkzoZ-54" vertex="1">
          <mxGeometry x="543" y="750" width="120" height="80" as="geometry" />
        </mxCell>
        <mxCell id="o6HUCbBxJBhQgPIIes5_-5" value="Fusion Data Foundation" style="rounded=1;whiteSpace=wrap;html=1;fontSize=16;fontColor=#FFFFFF;fillColor=#009900;align=center;verticalAlign=middle;" parent="PIvEL9YP9_9EcO1mkzoZ-54" vertex="1">
          <mxGeometry x="414" y="750" width="120" height="80" as="geometry" />
        </mxCell>
        <mxCell id="PIvEL9YP9_9EcO1mkzoZ-58" value="Cloud Pak" parent="0" />
        <mxCell id="PIvEL9YP9_9EcO1mkzoZ-59" value="watsonx" style="rounded=1;whiteSpace=wrap;html=1;fontSize=16;fontColor=#FFFFFF;fillColor=#009900;align=center;verticalAlign=middle;" parent="PIvEL9YP9_9EcO1mkzoZ-58" vertex="1">
          <mxGeometry x="150" y="640" width="170" height="80" as="geometry" />
        </mxCell>
        <mxCell id="PIvEL9YP9_9EcO1mkzoZ-60" value="Cloud Pak for Integration" style="rounded=1;whiteSpace=wrap;html=1;fontSize=16;fontColor=#FFFFFF;fillColor=#009900;align=center;verticalAlign=middle;" parent="PIvEL9YP9_9EcO1mkzoZ-58" vertex="1">
          <mxGeometry x="458" y="640" width="120" height="80" as="geometry" />
        </mxCell>
        <mxCell id="PIvEL9YP9_9EcO1mkzoZ-61" value="Cloud Pak for Business Automation" style="rounded=1;whiteSpace=wrap;html=1;fontSize=16;fontColor=#FFFFFF;fillColor=#009900;align=center;verticalAlign=middle;" parent="PIvEL9YP9_9EcO1mkzoZ-58" vertex="1">
          <mxGeometry x="588" y="640" width="120" height="80" as="geometry" />
        </mxCell>
        <mxCell id="PIvEL9YP9_9EcO1mkzoZ-62" value="Cloud Pak for Watson AIOps" style="rounded=1;whiteSpace=wrap;html=1;fontSize=16;fontColor=#FFFFFF;fillColor=#009900;align=center;verticalAlign=middle;" parent="PIvEL9YP9_9EcO1mkzoZ-58" vertex="1">
          <mxGeometry x="718" y="640" width="120" height="80" as="geometry" />
        </mxCell>
        <mxCell id="PIvEL9YP9_9EcO1mkzoZ-63" value="Cartridges" parent="0" />
        <mxCell id="PIvEL9YP9_9EcO1mkzoZ-64" style="edgeStyle=orthogonalEdgeStyle;rounded=0;orthogonalLoop=1;jettySize=auto;html=1;exitX=0.5;exitY=1;exitDx=0;exitDy=0;entryX=0.5;entryY=0.875;entryDx=0;entryDy=0;entryPerimeter=0;fontSize=16;fontColor=#FFFFFF;" parent="PIvEL9YP9_9EcO1mkzoZ-63" edge="1">
          <mxGeometry relative="1" as="geometry">
            <mxPoint x="340" y="610" as="sourcePoint" />
            <mxPoint x="340" y="600" as="targetPoint" />
          </mxGeometry>
        </mxCell>
        <mxCell id="PIvEL9YP9_9EcO1mkzoZ-67" value="Configuration" parent="0" />
        <mxCell id="PIvEL9YP9_9EcO1mkzoZ-68" value="Foundational Services IM" style="rounded=1;whiteSpace=wrap;html=1;fontSize=16;fontColor=#FFFFFF;fillColor=#009900;align=center;verticalAlign=middle;" parent="PIvEL9YP9_9EcO1mkzoZ-67" vertex="1">
          <mxGeometry x="150" y="530" width="120" height="80" as="geometry" />
        </mxCell>
        <mxCell id="PIvEL9YP9_9EcO1mkzoZ-70" value="CP4D Instances" style="rounded=1;whiteSpace=wrap;html=1;fontSize=16;fontColor=#FFFFFF;fillColor=#009900;align=center;verticalAlign=middle;" parent="PIvEL9YP9_9EcO1mkzoZ-67" vertex="1">
          <mxGeometry x="280" y="530" width="120" height="80" as="geometry" />
        </mxCell>
        <mxCell id="PIvEL9YP9_9EcO1mkzoZ-71" value="CP4D Monitoring" style="rounded=1;whiteSpace=wrap;html=1;fontSize=16;fontColor=#FFFFFF;fillColor=#009900;align=center;verticalAlign=middle;" parent="PIvEL9YP9_9EcO1mkzoZ-67" vertex="1">
          <mxGeometry x="406" y="530" width="120" height="80" as="geometry" />
        </mxCell>
        <mxCell id="PIvEL9YP9_9EcO1mkzoZ-72" value="CP4D Logging" style="rounded=1;whiteSpace=wrap;html=1;fontSize=16;fontColor=#FFFFFF;fillColor=#009900;align=center;verticalAlign=middle;" parent="PIvEL9YP9_9EcO1mkzoZ-67" vertex="1">
          <mxGeometry x="536" y="530" width="120" height="80" as="geometry" />
        </mxCell>
        <mxCell id="PIvEL9YP9_9EcO1mkzoZ-73" value="CP4D Auditing" style="rounded=1;whiteSpace=wrap;html=1;fontSize=16;fontColor=#FFFFFF;fillColor=#009900;align=center;verticalAlign=middle;" parent="PIvEL9YP9_9EcO1mkzoZ-67" vertex="1">
          <mxGeometry x="666" y="530" width="120" height="80" as="geometry" />
        </mxCell>
      </root>
    </mxGraphModel>
  </diagram>
</mxfile>
